<?xml version="1.0" encoding="utf-8"?>
<!-- Generator: Adobe Illustrator 23.0.0, SVG Export Plug-In . SVG Version: 6.00 Build 0)  -->
<svg version="1.1" id="图层_1" xmlns="http://www.w3.org/2000/svg" xmlns:xlink="http://www.w3.org/1999/xlink" x="0px" y="0px"
	 viewBox="0 0 414.1 119.2" style="enable-background:new 0 0 414.1 119.2;" xml:space="preserve">
<style type="text/css">
	.st0{fill:#D55E16;}
	.st1{opacity:0.28;fill:#D44C19;enable-background:new    ;}
	.st2{fill:#D54A16;}
	.st3{fill:#2C3233;}
</style>
<title>yiuios</title>
<g>
	<g id="图层_1-2">
		<path class="st0" d="M97.6,5.7c-8.1,0-14.7,6.6-14.7,14.7v34.5c0,3.1-0.2,6.1-0.6,9.1c-0.1,0.9-0.3,1.8-0.4,2.6
			c-3.2,17.1-13.5,22.8-25.7,22.8s-22.5-5.7-25.7-22.8c-0.2-0.8-0.3-1.7-0.4-2.6c-0.4-3-0.6-6.1-0.6-9.2V20.4
			c0-8.1-6.6-14.7-14.7-14.7C6.6,5.7,0,12.3,0,20.4v41.1c0,4.2,0.4,8.3,1.3,12.4c5.5,25.9,28,45.3,54.8,45.3s49.3-19.4,54.9-45.3
			c0.9-4.1,1.3-8.2,1.3-12.4V20.4C112.3,12.3,105.7,5.7,97.6,5.7C97.6,5.7,97.6,5.7,97.6,5.7z"/>
		<path class="st1" d="M0,20.3v0.1C0,20.4,0,20.3,0,20.3z"/>
		<path class="st1" d="M112.3,20.3c0,0,0,0.1,0,0.1V20.3z"/>
		<path class="st2" d="M83.2,20.3c0,2.3-0.2,1.9-0.6,4.2c-2.7,15.4-13.5,20.5-26.4,20.5s-23.8-5.1-26.4-20.5
			c-0.4-2.3-0.6-1.9-0.6-4.2l0,0c0,0,0,0.1,0,0.1v34.5c0,3.1,0.2,6.1,0.6,9.1c0.1,0.9,0.3,1.8,0.4,2.6c16.6,6.8,35.3,6.8,52,0
			c0.2-0.8,0.3-1.7,0.4-2.6c0.4-3,0.6-6.1,0.6-9.2V20.4C83.2,20.4,83.2,20.3,83.2,20.3L83.2,20.3z"/>
		<circle class="st0" cx="56.1" cy="17" r="17.1"/>
		<path class="st3" d="M171.7,61.4L155,39.5c-0.8-1.1-1.2-2.4-1.2-3.7c0-3.4,2.8-6,6.2-6c0.1,0,0.1,0,0.2,0c2.1-0.1,4.1,0.8,5.5,2.5
			l12.7,17.2L191,32.3c1.3-1.6,3.4-2.6,5.5-2.5c3.4-0.1,6.2,2.4,6.3,5.8c0,0.1,0,0.1,0,0.2c0,1.3-0.4,2.6-1.2,3.7l-16.6,21.8v21.9
			c0,3-1.9,6-6.6,6s-6.6-3-6.6-6L171.7,61.4z"/>
		<path class="st3" d="M205.9,36.3c0-4.1,2.8-6.4,6.6-6.4s6.6,2.3,6.6,6.4v46.6c0,4.1-2.8,6.4-6.6,6.4s-6.6-2.3-6.6-6.4V36.3z"/>
		<path class="st3" d="M226.6,36.3c0-4.1,2.8-6.4,6.6-6.4s6.6,2.3,6.6,6.4v28.7c0,7.6,5.2,13.6,13.6,13.6
			c7.4,0.1,13.4-5.8,13.5-13.2c0-0.1,0-0.3,0-0.4V36.3c0-4.1,2.8-6.4,6.6-6.4s6.6,2.3,6.6,6.4v29.3c0,13.8-12.2,24.2-26.7,24.2
			c-14.7,0-26.8-10.3-26.8-24.2L226.6,36.3z"/>
		<path class="st3" d="M287.5,36.3c0-4.1,2.8-6.4,6.6-6.4s6.6,2.3,6.6,6.4v46.6c0,4.1-2.8,6.4-6.6,6.4s-6.6-2.3-6.6-6.4V36.3z"/>
		<path class="st3" d="M306.3,59.6c0-17.1,12.4-30.2,30.4-30.2c17.7,0,30.4,13.6,30.4,30.2c0,17-12.3,30.2-30.4,30.2
			C318.7,89.8,306.3,76.6,306.3,59.6z M353.2,59.6c0-9.9-5.6-18.9-16.6-18.9S320,49.6,320,59.6s5.4,18.9,16.6,18.9
			S353.2,69.6,353.2,59.6z"/>
		<path class="st3" d="M409.6,37.6c0.1,3.2-2.4,6-5.7,6.1c-0.1,0-0.2,0-0.3,0c-3.6,0-6.4-2.5-11.7-2.5c-3.8,0-7.2,1.9-7.2,5.3
			c0,8.5,29.5,3,29.5,24.2c0,11.7-10.4,19-22.6,19c-6.8,0-21.4-1.5-21.4-9.2c-0.1-3.1,2.4-5.7,5.6-5.8c0.1,0,0.2,0,0.3,0
			c4.1,0,9.1,3.2,14.8,3.2s9-3,9-7.1c0-9.7-29.5-3.9-29.5-22.9c0-11.5,10.1-18.6,21.9-18.6C397.2,29.4,409.6,31.1,409.6,37.6z"/>
	</g>
</g>
</svg>
