<svg xmlns="http://www.w3.org/2000/svg" viewBox="0 0 414.15 119.16"><defs><style>.cls-1{fill:#d55e16;}.cls-2,.cls-3{fill:#d44c19;}.cls-2{opacity:0.28;}.cls-4{fill:#2c3233;}</style></defs><title>yiuios</title><g id="图层_2" data-name="图层 2"><g id="图层_1-2" data-name="图层 1"><path class="cls-1" d="M97.58,5.71a14.7,14.7,0,0,0-14.7,14.7V54.87A68.16,68.16,0,0,1,82.26,64c-.13.91-.28,1.78-.44,2.63-3.22,17.06-13.49,22.8-25.68,22.8s-22.46-5.74-25.68-22.8c-.16-.85-.31-1.72-.44-2.63a68.16,68.16,0,0,1-.62-9.16V20.41a14.7,14.7,0,0,0-29.4,0V61.47A59,59,0,0,0,1.32,73.88c5.52,25.89,28,45.28,54.82,45.28S105.44,99.77,111,73.88a59,59,0,0,0,1.32-12.41V20.41A14.7,14.7,0,0,0,97.58,5.71Z"/><path class="cls-2" d="M0,20.26v.15c0-.05,0-.1,0-.15Z"/><path class="cls-2" d="M112.27,20.26s0,.1,0,.15v-.15Z"/><path class="cls-3" d="M82.88,20.26c0,2.27-.23,1.85-.62,4.16C79.62,39.8,68.93,44.88,56.14,44.88S32.66,39.8,30,24.42c-.39-2.31-.61-1.89-.62-4.16h0s0,.1,0,.15V54.87A68.16,68.16,0,0,0,30,64c.13.91.28,1.78.44,2.63a66.84,66.84,0,0,0,51.36,0c.16-.85.31-1.72.44-2.63a68.16,68.16,0,0,0,.62-9.16V20.41c0-.05,0-.1,0-.15Z"/><circle class="cls-1" cx="56.14" cy="17.05" r="17.05"/><path class="cls-4" d="M171.7,61.39,155,39.54a6.28,6.28,0,0,1-1.24-3.69,6.08,6.08,0,0,1,6.36-6,6.68,6.68,0,0,1,5.47,2.46l12.7,17.17L191,32.31a6.66,6.66,0,0,1,5.47-2.46,6.08,6.08,0,0,1,6.35,6,6.21,6.21,0,0,1-1.24,3.69L184.94,61.39V83.31c0,3-1.94,6-6.62,6s-6.62-3-6.62-6Z"/><path class="cls-4" d="M205.94,36.26c0-4.11,2.82-6.41,6.61-6.41s6.62,2.3,6.62,6.41V82.9c0,4.11-2.82,6.41-6.62,6.41s-6.61-2.3-6.61-6.41Z"/><path class="cls-4" d="M226.58,36.26c0-4.11,2.82-6.41,6.62-6.41s6.61,2.3,6.61,6.41V64.92c0,7.55,5.21,13.55,13.59,13.55a13.33,13.33,0,0,0,13.5-13.55V36.26c0-4.11,2.82-6.41,6.62-6.41s6.61,2.3,6.61,6.41V65.57c0,13.8-12.17,24.23-26.73,24.23-14.73,0-26.82-10.26-26.82-24.23Z"/><path class="cls-4" d="M287.55,36.26c0-4.11,2.82-6.41,6.61-6.41s6.62,2.3,6.62,6.41V82.9c0,4.11-2.82,6.41-6.62,6.41s-6.61-2.3-6.61-6.41Z"/><path class="cls-4" d="M306.25,59.58c0-17.08,12.35-30.22,30.35-30.22,17.73,0,30.35,13.55,30.35,30.22,0,17-12.26,30.22-30.35,30.22C318.69,89.8,306.25,76.58,306.25,59.58Zm46.94,0c0-9.94-5.56-18.89-16.59-18.89S320,49.64,320,59.58s5.38,18.89,16.59,18.89S353.19,69.6,353.19,59.58Z"/><path class="cls-4" d="M409.56,37.57a5.87,5.87,0,0,1-5.91,6.08c-3.62,0-6.44-2.47-11.73-2.47-3.8,0-7.24,1.89-7.24,5.34,0,8.46,29.47,3,29.47,24.23,0,11.74-10.41,19-22.59,19-6.79,0-21.43-1.48-21.43-9.2A5.67,5.67,0,0,1,376,74.77c4.14,0,9.08,3.2,14.82,3.2s9-3,9-7.06c0-9.69-29.47-3.86-29.47-22.91,0-11.5,10.15-18.64,21.88-18.64C397.21,29.36,409.56,31.08,409.56,37.57Z"/></g></g></svg>